HIERARCHY
ROOT Hips
{
	OFFSET 0.000000 0.000000 0.000000
	CHANNELS 6 Xposition Yposition Zposition Zrotation Yrotation Xrotation 
	JOINT LHipJoint
	{
		OFFSET 0.000000 0.000000 0.000000
		CHANNELS 3 Zrotation Yrotation Xrotation
		JOINT LeftUpLeg
		{
			OFFSET 1.363060 -1.794630 0.839290
			CHANNELS 3 Zrotation Yrotation Xrotation
			JOINT LeftLeg
			{
				OFFSET 2.448110 -6.726130 0.000000
				CHANNELS 3 Zrotation Yrotation Xrotation
				JOINT LeftFoot
				{
					OFFSET 2.562200 -7.039590 0.000000
					CHANNELS 3 Zrotation Yrotation Xrotation
					JOINT LeftToeBase
					{
						OFFSET 0.157640 -0.433110 2.322550
						CHANNELS 3 Zrotation Yrotation Xrotation
						End Site
						{
							OFFSET 0.000000 0.000000 0.000000
						}
					}
				}
			}
		}
	}
	JOINT RHipJoint
	{
		OFFSET 0.000000 0.000000 0.000000
		CHANNELS 3 Zrotation Yrotation Xrotation
		JOINT RightUpLeg
		{
			OFFSET -1.305520 -1.794630 0.839290
			CHANNELS 3 Zrotation Yrotation Xrotation
			JOINT RightLeg
			{
				OFFSET -2.542530 -6.985550 0.000000
				CHANNELS 3 Zrotation Yrotation Xrotation
				JOINT RightFoot
				{
					OFFSET -2.568260 -7.056230 0.000000
					CHANNELS 3 Zrotation Yrotation Xrotation
					JOINT RightToeBase
					{
						OFFSET -0.164730 -0.452590 2.363150
						CHANNELS 3 Zrotation Yrotation Xrotation
						End Site
						{
							OFFSET 0.000000 0.000000 0.000000
						}
					}
				}
			}
		}
	}
	JOINT LowerBack
	{
		OFFSET 0.000000 0.000000 0.000000
		CHANNELS 3 Zrotation Yrotation Xrotation
		JOINT Spine
		{
			OFFSET 0.028270 2.035590 -0.193380
			CHANNELS 3 Zrotation Yrotation Xrotation
			JOINT Spine1
			{
				OFFSET 0.056720 2.048850 -0.042750
				CHANNELS 3 Zrotation Yrotation Xrotation
				JOINT Neck
				{
					OFFSET 0.000000 0.000000 0.000000
					CHANNELS 3 Zrotation Yrotation Xrotation
					JOINT Neck1
					{
						OFFSET -0.054170 1.746240 0.172020
						CHANNELS 3 Zrotation Yrotation Xrotation
						JOINT Head
						{
							OFFSET 0.104070 1.761360 -0.123970
							CHANNELS 3 Zrotation Yrotation Xrotation
							End Site
							{
								OFFSET 0.000000 0.000000 0.000000
							}
						}
					}
				}
				JOINT LeftShoulder
				{
					OFFSET 0.000000 0.000000 0.000000
					CHANNELS 3 Zrotation Yrotation Xrotation
					JOINT LeftArm
					{
						OFFSET 3.362410 1.200890 -0.311210
						CHANNELS 3 Zrotation Yrotation Xrotation
						JOINT LeftForeArm
						{
							OFFSET 4.983000 -0.000000 -0.000000
							CHANNELS 3 Zrotation Yrotation Xrotation
							JOINT LeftHand
							{
								OFFSET 3.483560 -0.000000 -0.000000
								CHANNELS 3 Zrotation Yrotation Xrotation
								JOINT LeftFingerBase
								{
									OFFSET 0.000000 0.000000 0.000000
									CHANNELS 3 Zrotation Yrotation Xrotation
									JOINT LeftHandIndex1
									{
										OFFSET 0.715260 -0.000000 -0.000000
										CHANNELS 3 Zrotation Yrotation Xrotation
										End Site
										{
											OFFSET 0.000000 0.000000 0.000000
										}
									}
								}
								JOINT LThumb
								{
									OFFSET 0.000000 0.000000 0.000000
									CHANNELS 3 Zrotation Yrotation Xrotation
									End Site
									{
										OFFSET 0.000000 0.000000 0.000000
									}
								}
							}
						}
					}
				}
				JOINT RightShoulder
				{
					OFFSET 0.000000 0.000000 0.000000
					CHANNELS 3 Zrotation Yrotation Xrotation
					JOINT RightArm
					{
						OFFSET -3.136600 1.374050 -0.404650
						CHANNELS 3 Zrotation Yrotation Xrotation
						JOINT RightForeArm
						{
							OFFSET -5.241900 -0.000000 -0.000000
							CHANNELS 3 Zrotation Yrotation Xrotation
							JOINT RightHand
							{
								OFFSET -3.444170 -0.000000 -0.000000
								CHANNELS 3 Zrotation Yrotation Xrotation
								JOINT RightFingerBase
								{
									OFFSET 0.000000 0.000000 0.000000
									CHANNELS 3 Zrotation Yrotation Xrotation
									JOINT RightHandIndex1
									{
										OFFSET -0.622530 -0.000000 -0.000000
										CHANNELS 3 Zrotation Yrotation Xrotation
										End Site
										{
											OFFSET 0.000000 0.000000 0.000000
										}
									}
								}
								JOINT RThumb
								{
									OFFSET 0.000000 0.000000 0.000000
									CHANNELS 3 Zrotation Yrotation Xrotation
									End Site
									{
										OFFSET 0.000000 0.000000 0.000000
									}
								}
							}
						}
					}
				}
			}
		}
	}
}
MOTION
Frames: 5
Frame Time: 0.008333
-0.626769 18.308525 5.751269 -0.600142 -5.051273 1.507955 0.547205 3.593583 3.206962 -14.556158 -11.753727 -1.300756 0.361804 6.376191 21.155329 -1.171169 11.552627 -21.998024 7.609600 -15.824400 -51.143900 -4.045945 -4.157219 1.859248 2.951286 1.871195 -1.898483 0.070276 0.602227 1.390114 0.278481 -1.041690 5.866485 0.000000 0.000000 0.000000 4.667877 2.761913 -6.711903 -6.808222 2.807101 17.199994 -0.267003 1.941607 -12.001272 -2.180782 -2.931973 -22.797921 5.627331 -4.035768 31.237677 0.991900 -1.057800 9.551400 3.023286 -7.736728 0.542316 -94.386441 10.099952 23.450247 24.768110 -33.612688 -6.291779 0.447476 0.132731 8.295662 4.213640 -22.333909 -1.454900 -7.125000 0.000000 0.000000 -15.677700 8.057400 13.869100 -2.862168 9.586321 3.276574 97.874026 -14.341698 14.840601 -34.367944 41.900433 -10.600303 0.784880 -3.214956 19.172536 -7.849282 -35.738067 5.314500 7.125000 0.000000 0.000000 26.496600 -61.146000 -10.850300 
-0.626671 18.308721 5.752446 -0.649744 -5.058179 1.496630 0.558819 3.602223 3.222797 -14.525197 -11.814469 -1.267365 0.360584 6.374700 21.158197 -1.156580 11.540613 -22.096264 7.597900 -15.815400 -51.101000 -4.029878 -4.159019 1.875488 2.951327 1.871770 -1.895365 0.069885 0.603841 1.390457 0.278993 -1.040410 5.867725 0.000000 0.000000 0.000000 4.646837 2.760978 -6.763616 -6.662741 2.806039 17.362439 -0.313394 1.940642 -12.030989 -2.156481 -2.923510 -22.888071 5.566949 -4.010067 31.206529 0.977600 -1.052200 9.556000 3.013346 -7.728945 0.530544 -94.370536 10.103504 23.497742 24.763374 -33.613369 -6.292727 0.450458 0.131876 8.278613 4.265069 -22.415133 -1.478500 -7.125000 0.000000 0.000000 -15.646500 7.976100 13.865300 -2.896589 9.583629 3.269184 97.877894 -14.353827 14.806480 -34.334588 41.882621 -10.590701 0.776842 -3.217740 19.255540 -7.908780 -35.807492 5.355400 7.125000 0.000000 0.000000 26.498000 -61.217000 -10.895800 
-0.626671 18.308329 5.753721 -0.662727 -5.068976 1.482249 0.550024 3.604506 3.232144 -14.520610 -11.917185 -1.211350 0.357112 6.375586 21.161638 -1.152180 11.577893 -22.219299 7.599700 -15.816800 -51.107700 -4.035153 -4.161117 1.879637 2.949103 1.872459 -1.893170 0.070004 0.605253 1.390921 0.279457 -1.038995 5.868192 0.000000 0.000000 0.000000 4.684892 2.771026 -6.771360 -6.724872 2.823943 17.440755 -0.303197 1.946722 -12.052257 -2.086770 -2.921776 -22.920638 5.545725 -4.018307 31.180374 0.964000 -1.055500 9.554900 3.026499 -7.725503 0.524958 -94.333542 10.127363 23.512676 24.765975 -33.616589 -6.293998 0.450792 0.132631 8.293844 4.290636 -22.407534 -1.488000 -7.125000 0.000000 0.000000 -15.631100 7.980600 13.849000 -2.901101 9.584578 3.268753 97.887044 -14.407772 14.827007 -34.362719 41.907634 -10.604030 0.788007 -3.219079 19.247726 -7.724784 -35.870089 5.269300 7.125000 0.000000 0.000000 26.742700 -61.235500 -11.016600 
-0.626377 18.308035 5.754113 -0.671754 -5.060682 1.481539 0.549618 3.605352 3.234626 -14.520587 -11.975730 -1.199000 0.355380 6.376431 21.163663 -1.170961 11.648296 -22.224935 7.618900 -15.831600 -51.177900 -4.035528 -4.162211 1.882599 2.948420 1.872673 -1.892232 0.070015 0.605787 1.391075 0.279618 -1.038490 5.868424 0.000000 0.000000 0.000000 4.691087 2.771069 -6.769822 -6.729635 2.824911 17.468343 -0.301706 1.947337 -12.057037 -2.088009 -2.935774 -22.882721 5.580134 -4.047813 31.105769 0.968200 -1.067700 9.534100 3.029945 -7.728027 0.520440 -94.312956 10.157158 23.528218 24.766474 -33.615442 -6.293754 0.450843 0.133663 8.285592 4.306464 -22.390024 -1.493100 -7.125000 0.000000 0.000000 -15.621700 7.995300 13.835300 -2.898825 9.584981 3.270602 97.850756 -14.483035 14.902694 -34.405590 41.929484 -10.618142 0.802767 -3.217686 19.186537 -7.533324 -35.879669 5.171500 7.125000 0.000000 0.000000 26.947800 -61.207700 -11.090300 
-0.625592 18.307937 5.753917 -0.642070 -5.052891 1.487005 0.538398 3.604388 3.238637 -14.545920 -11.988028 -1.208559 0.355773 6.376204 21.162642 -1.174934 11.650576 -22.195464 7.614900 -15.828600 -51.163400 -4.046150 -4.164936 1.884327 2.945806 1.873345 -1.890284 0.070242 0.607108 1.391532 0.280014 -1.037105 5.868713 0.000000 0.000000 0.000000 4.724651 2.772036 -6.776934 -6.836641 2.830426 17.512785 -0.281275 1.947703 -12.065973 -2.138853 -2.951220 -22.887927 5.707523 -4.090815 31.079698 0.997200 -1.074200 9.533800 3.059566 -7.729876 0.517306 -94.301434 10.154447 23.506547 24.743689 -33.594688 -6.283655 0.451374 0.131806 8.290684 4.293542 -22.420952 -1.489600 -7.125000 0.000000 0.000000 -15.629500 7.968200 13.851500 -2.890135 9.582292 3.266441 97.819994 -14.510040 14.935318 -34.385616 41.897156 -10.592441 0.798913 -3.212266 19.213382 -7.633111 -35.631127 5.189700 7.125000 0.000000 0.000000 26.619600 -61.015500 -10.821900 
